<mxfile host="app.diagrams.net" modified="2024-06-21T15:29:12.826Z" agent="Mozilla/5.0 (Windows NT 10.0; Win64; x64) AppleWebKit/537.36 (KHTML, like Gecko) Chrome/126.0.0.0 Safari/537.36 Edg/126.0.0.0" etag="yavHg5bRLzEUjaELZVwV" version="24.6.1" type="device">
  <diagram name="Page-1" id="BK42rvWdYK42GYSj_Q6P">
    <mxGraphModel dx="1542" dy="875" grid="1" gridSize="10" guides="1" tooltips="1" connect="1" arrows="1" fold="1" page="1" pageScale="1" pageWidth="850" pageHeight="1100" math="0" shadow="0">
      <root>
        <mxCell id="0" />
        <mxCell id="1" parent="0" />
        <mxCell id="z9SFwVJDrVgry2yOiOSz-1" value="" style="sketch=0;points=[[0.5,0,0],[1,0.5,0],[0.5,1,0],[0,0.5,0],[0.145,0.145,0],[0.8555,0.145,0],[0.855,0.8555,0],[0.145,0.855,0]];verticalLabelPosition=bottom;html=1;verticalAlign=top;aspect=fixed;align=center;pointerEvents=1;shape=mxgraph.cisco19.rect;prIcon=router_with_firewall;fillColor=#FAFAFA;strokeColor=#005073;" vertex="1" parent="1">
          <mxGeometry x="120" y="80" width="50" height="50" as="geometry" />
        </mxCell>
        <mxCell id="z9SFwVJDrVgry2yOiOSz-17" style="edgeStyle=orthogonalEdgeStyle;rounded=0;orthogonalLoop=1;jettySize=auto;html=1;" edge="1" parent="1" source="z9SFwVJDrVgry2yOiOSz-2" target="z9SFwVJDrVgry2yOiOSz-3">
          <mxGeometry relative="1" as="geometry">
            <mxPoint x="60" y="280" as="targetPoint" />
            <Array as="points">
              <mxPoint x="101" y="283" />
              <mxPoint x="101" y="281" />
              <mxPoint x="57" y="281" />
            </Array>
          </mxGeometry>
        </mxCell>
        <mxCell id="z9SFwVJDrVgry2yOiOSz-18" style="edgeStyle=orthogonalEdgeStyle;rounded=0;orthogonalLoop=1;jettySize=auto;html=1;" edge="1" parent="1" source="z9SFwVJDrVgry2yOiOSz-2" target="z9SFwVJDrVgry2yOiOSz-9">
          <mxGeometry relative="1" as="geometry">
            <mxPoint x="800" y="282.5" as="targetPoint" />
          </mxGeometry>
        </mxCell>
        <mxCell id="z9SFwVJDrVgry2yOiOSz-2" value="" style="verticalLabelPosition=bottom;sketch=0;html=1;fillColor=#A153A0;strokeColor=#ffffff;verticalAlign=top;align=center;points=[[0,0.5,0],[0.125,0.25,0],[0.25,0,0],[0.5,0,0],[0.75,0,0],[0.875,0.25,0],[1,0.5,0],[0.875,0.75,0],[0.75,1,0],[0.5,1,0],[0.125,0.75,0]];pointerEvents=1;shape=mxgraph.cisco_safe.compositeIcon;bgIcon=mxgraph.cisco_safe.design.blank_device;resIcon=mxgraph.cisco_safe.design.l3_switch;" vertex="1" parent="1">
          <mxGeometry x="140" y="260" width="50" height="45" as="geometry" />
        </mxCell>
        <mxCell id="z9SFwVJDrVgry2yOiOSz-10" style="edgeStyle=orthogonalEdgeStyle;rounded=0;orthogonalLoop=1;jettySize=auto;html=1;" edge="1" parent="1" source="z9SFwVJDrVgry2yOiOSz-3" target="z9SFwVJDrVgry2yOiOSz-4">
          <mxGeometry relative="1" as="geometry" />
        </mxCell>
        <mxCell id="z9SFwVJDrVgry2yOiOSz-3" value="" style="image;points=[];aspect=fixed;html=1;align=center;shadow=0;dashed=0;image=img/lib/allied_telesis/switch/Switch_24_port_L3.svg;" vertex="1" parent="1">
          <mxGeometry x="20" y="490" width="74.4" height="51" as="geometry" />
        </mxCell>
        <mxCell id="z9SFwVJDrVgry2yOiOSz-4" value="" style="image;points=[];aspect=fixed;html=1;align=center;shadow=0;dashed=0;image=img/lib/allied_telesis/switch/Switch_24_port_L3.svg;" vertex="1" parent="1">
          <mxGeometry x="140" y="490" width="74.4" height="51" as="geometry" />
        </mxCell>
        <mxCell id="z9SFwVJDrVgry2yOiOSz-11" style="edgeStyle=orthogonalEdgeStyle;rounded=0;orthogonalLoop=1;jettySize=auto;html=1;" edge="1" parent="1" source="z9SFwVJDrVgry2yOiOSz-5" target="z9SFwVJDrVgry2yOiOSz-4">
          <mxGeometry relative="1" as="geometry" />
        </mxCell>
        <mxCell id="z9SFwVJDrVgry2yOiOSz-5" value="" style="image;points=[];aspect=fixed;html=1;align=center;shadow=0;dashed=0;image=img/lib/allied_telesis/switch/Switch_24_port_L3.svg;" vertex="1" parent="1">
          <mxGeometry x="320" y="486.58" width="74.4" height="51" as="geometry" />
        </mxCell>
        <mxCell id="z9SFwVJDrVgry2yOiOSz-12" style="edgeStyle=orthogonalEdgeStyle;rounded=0;orthogonalLoop=1;jettySize=auto;html=1;" edge="1" parent="1" source="z9SFwVJDrVgry2yOiOSz-6" target="z9SFwVJDrVgry2yOiOSz-5">
          <mxGeometry relative="1" as="geometry" />
        </mxCell>
        <mxCell id="z9SFwVJDrVgry2yOiOSz-6" value="" style="image;points=[];aspect=fixed;html=1;align=center;shadow=0;dashed=0;image=img/lib/allied_telesis/switch/Switch_24_port_L3.svg;" vertex="1" parent="1">
          <mxGeometry x="450" y="490" width="74.4" height="51" as="geometry" />
        </mxCell>
        <mxCell id="z9SFwVJDrVgry2yOiOSz-13" style="edgeStyle=orthogonalEdgeStyle;rounded=0;orthogonalLoop=1;jettySize=auto;html=1;" edge="1" parent="1" source="z9SFwVJDrVgry2yOiOSz-7" target="z9SFwVJDrVgry2yOiOSz-6">
          <mxGeometry relative="1" as="geometry" />
        </mxCell>
        <mxCell id="z9SFwVJDrVgry2yOiOSz-7" value="" style="image;points=[];aspect=fixed;html=1;align=center;shadow=0;dashed=0;image=img/lib/allied_telesis/switch/Switch_24_port_L3.svg;" vertex="1" parent="1">
          <mxGeometry x="610" y="493.43" width="74.4" height="51" as="geometry" />
        </mxCell>
        <mxCell id="z9SFwVJDrVgry2yOiOSz-14" style="edgeStyle=orthogonalEdgeStyle;rounded=0;orthogonalLoop=1;jettySize=auto;html=1;" edge="1" parent="1" source="z9SFwVJDrVgry2yOiOSz-8" target="z9SFwVJDrVgry2yOiOSz-7">
          <mxGeometry relative="1" as="geometry" />
        </mxCell>
        <mxCell id="z9SFwVJDrVgry2yOiOSz-8" value="" style="image;points=[];aspect=fixed;html=1;align=center;shadow=0;dashed=0;image=img/lib/allied_telesis/switch/Switch_24_port_L3.svg;" vertex="1" parent="1">
          <mxGeometry x="780" y="486.58" width="84.4" height="57.85" as="geometry" />
        </mxCell>
        <mxCell id="z9SFwVJDrVgry2yOiOSz-9" value="" style="image;points=[];aspect=fixed;html=1;align=center;shadow=0;dashed=0;image=img/lib/allied_telesis/switch/Switch_24_port_L3.svg;" vertex="1" parent="1">
          <mxGeometry x="980" y="490" width="74.4" height="51" as="geometry" />
        </mxCell>
        <mxCell id="z9SFwVJDrVgry2yOiOSz-15" style="edgeStyle=orthogonalEdgeStyle;rounded=0;orthogonalLoop=1;jettySize=auto;html=1;entryX=0.995;entryY=0.553;entryDx=0;entryDy=0;entryPerimeter=0;" edge="1" parent="1" source="z9SFwVJDrVgry2yOiOSz-9" target="z9SFwVJDrVgry2yOiOSz-8">
          <mxGeometry relative="1" as="geometry" />
        </mxCell>
        <mxCell id="z9SFwVJDrVgry2yOiOSz-19" style="edgeStyle=orthogonalEdgeStyle;rounded=0;orthogonalLoop=1;jettySize=auto;html=1;entryX=0.5;entryY=1;entryDx=0;entryDy=0;entryPerimeter=0;" edge="1" parent="1" source="z9SFwVJDrVgry2yOiOSz-21" target="z9SFwVJDrVgry2yOiOSz-1">
          <mxGeometry relative="1" as="geometry" />
        </mxCell>
        <mxCell id="z9SFwVJDrVgry2yOiOSz-22" value="" style="edgeStyle=orthogonalEdgeStyle;rounded=0;orthogonalLoop=1;jettySize=auto;html=1;entryX=0.5;entryY=1;entryDx=0;entryDy=0;entryPerimeter=0;" edge="1" parent="1" source="z9SFwVJDrVgry2yOiOSz-2" target="z9SFwVJDrVgry2yOiOSz-21">
          <mxGeometry relative="1" as="geometry">
            <mxPoint x="165" y="260" as="sourcePoint" />
            <mxPoint x="145" y="130" as="targetPoint" />
          </mxGeometry>
        </mxCell>
        <mxCell id="z9SFwVJDrVgry2yOiOSz-21" value="firewall" style="rounded=0;whiteSpace=wrap;html=1;" vertex="1" parent="1">
          <mxGeometry x="104" y="150" width="86" height="30" as="geometry" />
        </mxCell>
        <mxCell id="z9SFwVJDrVgry2yOiOSz-24" value="core Switch" style="rounded=0;whiteSpace=wrap;html=1;" vertex="1" parent="1">
          <mxGeometry x="117" y="320" width="120" height="30" as="geometry" />
        </mxCell>
        <mxCell id="z9SFwVJDrVgry2yOiOSz-25" value="Switch&lt;div&gt;cluster 1&lt;/div&gt;" style="rounded=0;whiteSpace=wrap;html=1;" vertex="1" parent="1">
          <mxGeometry x="10" y="560" width="120" height="30" as="geometry" />
        </mxCell>
        <mxCell id="z9SFwVJDrVgry2yOiOSz-26" value="switch cluster 2" style="rounded=0;whiteSpace=wrap;html=1;" vertex="1" parent="1">
          <mxGeometry x="142" y="560" width="120" height="30" as="geometry" />
        </mxCell>
        <mxCell id="z9SFwVJDrVgry2yOiOSz-30" value="switch cluster 3" style="rounded=0;whiteSpace=wrap;html=1;" vertex="1" parent="1">
          <mxGeometry x="305" y="570" width="120" height="30" as="geometry" />
        </mxCell>
        <mxCell id="z9SFwVJDrVgry2yOiOSz-31" value="switch cluster 4" style="rounded=0;whiteSpace=wrap;html=1;" vertex="1" parent="1">
          <mxGeometry x="450" y="570" width="120" height="30" as="geometry" />
        </mxCell>
        <mxCell id="z9SFwVJDrVgry2yOiOSz-32" value="switch cluster 5" style="rounded=0;whiteSpace=wrap;html=1;" vertex="1" parent="1">
          <mxGeometry x="600" y="570" width="120" height="30" as="geometry" />
        </mxCell>
        <mxCell id="z9SFwVJDrVgry2yOiOSz-33" value="switch cluster 6" style="rounded=0;whiteSpace=wrap;html=1;" vertex="1" parent="1">
          <mxGeometry x="780" y="550" width="120" height="30" as="geometry" />
        </mxCell>
        <mxCell id="z9SFwVJDrVgry2yOiOSz-34" value="switch cluster 7" style="rounded=0;whiteSpace=wrap;html=1;" vertex="1" parent="1">
          <mxGeometry x="990" y="560" width="120" height="30" as="geometry" />
        </mxCell>
      </root>
    </mxGraphModel>
  </diagram>
</mxfile>
